<?xml version="1.0" encoding="UTF-8" standalone="no"?>
<!DOCTYPE svg PUBLIC "-//W3C//DTD SVG 1.1//EN"
"http://www.w3.org/Graphics/SVG/1.1/DTD/svg11.dtd">
<svg viewBox="0 0 935 1210" version="1.1" xmlns="http://www.w3.org/2000/svg" xmlns:xlink="http://www.w3.org/1999/xlink">
<defs>
<clipPath id="c0"><path d="M0,1210V0H935V1210Z"/></clipPath>
<style type="text/css"><![CDATA[
.g0{
fill: none;
stroke: #000;
stroke-width: 0.763;
}
.g1{
fill: #BCBEC0;
}
.g2{
fill: #000;
}
.g3{
fill: #FFF;
}
.g4{
fill: none;
stroke: #000;
stroke-width: 1.527;
stroke-miterlimit: 10;
}
.g5{
fill: none;
stroke: #000;
stroke-width: 1.527;
}
]]></style>
</defs>
<path d="M64.7,59.2c0,0,-13,0,-13,13V245.8c0,0,0,12.9,13,12.9H612.2c0,0,13,0,13,-12.9V72.2c0,0,0,-13,-13,-13H64.7Zm591.6,0c0,0,-13,0,-13,13V358.3c0,0,0,13,13,13H908c0,0,13,0,13,-13V72.2c0,0,0,-13,-13,-13H656.3ZM64.7,273.6c0,0,-13,0,-13,13V611.7c0,0,0,13,13,13H612.2c0,0,13,0,13,-13V286.6c0,0,0,-13,-13,-13H64.7Zm0,505.6c0,0,-13,0,-13,13v91.2c0,0,0,13,13,13H612.2c0,0,13,0,13,-13V792.2c0,0,0,-13,-13,-13H64.7Zm0,136.4c0,0,-13,0,-13,13v227.7c0,0,0,13,13,13H908c0,0,13,0,13,-13V928.6c0,0,0,-13,-13,-13H64.7Z" class="g0"/>
<path d="M61.3,393.7H591.6V349.1H61.3v44.6Z" class="g1"/>
<path d="M61.3,482.8H591.6V438.2H61.3v44.6Z" class="g1"/>
<path d="M61.3,571.8H591.6V527.3H61.3v44.5Z" class="g1"/>
<path d="M656.3,624.4c0,0,-13,0,-13,13v246c0,0,0,13,13,13H908c0,0,13,0,13,-13v-246c0,0,0,-13,-13,-13H656.3ZM360.5,643.9c0,0,-13,0,-13,12.9v91.3c0,0,0,13,13,13H612.2c0,0,13,0,13,-13V656.8c0,0,0,-12.9,-13,-12.9H360.5Zm-295.8,0c0,0,-13,0,-13,12.9v91.3c0,0,0,13,13,13H316.2c0,0,13,0,13,-13V656.8c0,0,0,-12.9,-13,-12.9H64.7ZM656.3,390.5c0,0,-13,0,-13,13V592.2c0,0,0,13,13,13H908c0,0,13,0,13,-13V403.5c0,0,0,-13,-13,-13H656.3Z" class="g0"/>
<path d="M591.6,571.8c12.3,0,22.3,-9.9,22.3,-22.2c0,-12.3,-10,-22.3,-22.3,-22.3c-12.3,0,-22.3,10,-22.3,22.3c0,12.3,10,22.2,22.3,22.2Z" class="g1"/>
<path d="M591.6,482.8c12.3,0,22.3,-10,22.3,-22.3c0,-12.3,-10,-22.3,-22.3,-22.3c-12.3,0,-22.3,10,-22.3,22.3c0,12.3,10,22.3,22.3,22.3Z" class="g1"/>
<path d="M591.6,393.7c12.3,0,22.3,-10,22.3,-22.3c0,-12.3,-10,-22.3,-22.3,-22.3c-12.3,0,-22.3,10,-22.3,22.3c0,12.3,10,22.3,22.3,22.3Z" class="g1"/>
<path d="M64.3,962.5H238.9m8.6,0h65m8.6,0h39m8.7,0h56.3m8.6,0H598.3m8.7,0H755.5m8.7,0h38.9m10.5,0h43.3m6.4,0h43.3M64.3,982H238.9m8.6,0h65m8.6,0h39m8.7,0h56.3m8.6,0H598.3m8.7,0H755.5m8.7,0h38.9m10.5,0h43.3m6.4,0h43.3M64.3,1001.5H238.9m8.6,0h65m8.6,0h39m8.7,0h56.3m8.6,0H598.3m8.7,0H755.5m8.7,0h38.9m10.5,0h43.3m6.4,0h43.3M64.3,1020.9H238.9m8.6,0h65m8.6,0h39m8.7,0h56.3m8.6,0H598.3m8.7,0H755.5m8.7,0h38.9m10.5,0h43.3m6.4,0h43.3M64.3,1040.4H238.9m8.6,0h65m8.6,0h39m8.7,0h56.3m8.6,0H598.3m8.7,0H755.5m8.7,0h38.9m10.5,0h43.3m6.4,0h43.3M64.3,1059.9H238.9m8.6,0h65m8.6,0h39m8.7,0h56.3m8.6,0H598.3m8.7,0H755.5m8.7,0h38.9m10.5,0h43.3m6.4,0h43.3M64.3,1079.4H238.9m8.6,0h65m8.6,0h39m8.7,0h56.3m8.6,0H598.3m8.7,0H755.5m8.7,0h38.9m10.5,0h43.3m6.4,0h43.3M64.3,1137.9H238.9m8.6,0h65m6.5,0h38.9m4.4,0h39m4.3,0h39m6.5,0H555m8.7,0H712.2m8.7,0h38.9m6.5,0h39m8.3,0h43.3m6.4,0h43.3M64.3,1157.4H238.9m8.6,0h65m6.5,0h38.9m4.4,0h39m4.3,0h39m6.5,0H555m8.7,0H712.2m8.7,0h38.9m6.5,0h39m8.3,0h43.3m6.4,0h43.3M572.5,183h39m-39,19.4h39m-39,19.5h39" class="g0"/>
<path d="M165.7,232.5v5.3c0,.5,.3,4.4,4.4,5.5c4.1,-1.1,4.4,-5,4.4,-5.5v-5.3Zm8.1,5.3c0,.1,-.1,3.7,-3.7,4.8v-9.4h3.7Z" class="g2"/>
<path d="M572.5,241.4h39" class="g0"/>
<path d="M233.2,310.3v16.2c0,1.6,.8,13.4,14.7,16.9c14,-3.5,14.8,-15.3,14.8,-16.9V310.3Z" class="g3"/>
<path d="M233.2,310.3v16.2c0,1.6,.8,13.4,14.7,16.9c14,-3.5,14.8,-15.3,14.8,-16.9V310.3H233.2Z" class="g4"/>
<path d="M591.8,343.4c9.2,0,16.6,-7.4,16.6,-16.5c0,-9.2,-7.4,-16.6,-16.6,-16.6c-9.1,0,-16.6,7.4,-16.6,16.6c0,9.1,7.5,16.5,16.6,16.5Z" class="g3"/>
<path d="M591.8,343.4c9.2,0,16.6,-7.4,16.6,-16.5c0,-9.2,-7.4,-16.6,-16.6,-16.6c-9.1,0,-16.6,7.4,-16.6,16.6c0,9.1,7.5,16.5,16.6,16.5Z" class="g5"/>
<path d="M233.2,354.9V371c0,1.6,.8,13.5,14.7,17c14,-3.5,14.8,-15.4,14.8,-17V354.9Z" class="g3"/>
<path d="M233.2,354.9V371c0,1.6,.8,13.5,14.7,17c14,-3.5,14.8,-15.4,14.8,-17V354.9H233.2Z" class="g4"/>
<path d="M591.8,388c9.2,0,16.6,-7.4,16.6,-16.6c0,-9.1,-7.4,-16.5,-16.6,-16.5c-9.1,0,-16.6,7.4,-16.6,16.5c0,9.2,7.5,16.6,16.6,16.6Z" class="g3"/>
<path d="M591.8,388c9.2,0,16.6,-7.4,16.6,-16.6c0,-9.1,-7.4,-16.5,-16.6,-16.5c-9.1,0,-16.6,7.4,-16.6,16.5c0,9.2,7.5,16.6,16.6,16.6Z" class="g5"/>
<path d="M233.2,399.4v16.2c0,1.6,.8,13.4,14.7,16.9c14,-3.5,14.8,-15.3,14.8,-16.9V399.4Z" class="g3"/>
<path d="M233.2,399.4v16.2c0,1.6,.8,13.4,14.7,16.9c14,-3.5,14.8,-15.3,14.8,-16.9V399.4H233.2Z" class="g4"/>
<path d="M591.8,432.5c9.2,0,16.6,-7.4,16.6,-16.5c0,-9.2,-7.4,-16.6,-16.6,-16.6c-9.1,0,-16.6,7.4,-16.6,16.6c0,9.1,7.5,16.5,16.6,16.5Z" class="g3"/>
<path d="M591.8,432.5c9.2,0,16.6,-7.4,16.6,-16.5c0,-9.2,-7.4,-16.6,-16.6,-16.6c-9.1,0,-16.6,7.4,-16.6,16.6c0,9.1,7.5,16.5,16.6,16.5Z" class="g5"/>
<path d="M233.2,443.9v16.2c0,1.6,.8,13.4,14.7,17c14,-3.6,14.8,-15.4,14.8,-17V443.9Z" class="g3"/>
<path d="M233.2,443.9v16.2c0,1.6,.8,13.4,14.7,17c14,-3.6,14.8,-15.4,14.8,-17V443.9H233.2Z" class="g4"/>
<path d="M591.8,477.1c9.2,0,16.6,-7.5,16.6,-16.6c0,-9.1,-7.4,-16.6,-16.6,-16.6c-9.1,0,-16.6,7.5,-16.6,16.6c0,9.1,7.5,16.6,16.6,16.6Z" class="g3"/>
<path d="M591.8,477.1c9.2,0,16.6,-7.5,16.6,-16.6c0,-9.1,-7.4,-16.6,-16.6,-16.6c-9.1,0,-16.6,7.5,-16.6,16.6c0,9.1,7.5,16.6,16.6,16.6Z" class="g5"/>
<path d="M233.2,488.5v16.2c0,1.6,.8,13.4,14.7,16.9c14,-3.5,14.8,-15.3,14.8,-16.9V488.5Z" class="g3"/>
<path d="M233.2,488.5v16.2c0,1.6,.8,13.4,14.7,16.9c14,-3.5,14.8,-15.3,14.8,-16.9V488.5H233.2Z" class="g4"/>
<path d="M591.8,521.6c9.2,0,16.6,-7.4,16.6,-16.6c0,-9.1,-7.4,-16.5,-16.6,-16.5c-9.1,0,-16.6,7.4,-16.6,16.5c0,9.2,7.5,16.6,16.6,16.6Z" class="g3"/>
<path d="M591.8,521.6c9.2,0,16.6,-7.4,16.6,-16.6c0,-9.1,-7.4,-16.5,-16.6,-16.5c-9.1,0,-16.6,7.4,-16.6,16.5c0,9.2,7.5,16.6,16.6,16.6Z" class="g5"/>
<path d="M233.2,533v16.2c0,1.6,.8,13.4,14.7,17c14,-3.6,14.8,-15.4,14.8,-17V533Z" class="g3"/>
<path d="M233.2,533v16.2c0,1.6,.8,13.4,14.7,17c14,-3.6,14.8,-15.4,14.8,-17V533H233.2Z" class="g4"/>
<path d="M591.8,566.2c9.2,0,16.6,-7.5,16.6,-16.6C608.4,540.4,601,533,591.8,533c-9.1,0,-16.6,7.4,-16.6,16.6c0,9.1,7.5,16.6,16.6,16.6Z" class="g3"/>
<path d="M591.8,566.2c9.2,0,16.6,-7.5,16.6,-16.6C608.4,540.4,601,533,591.8,533c-9.1,0,-16.6,7.4,-16.6,16.6c0,9.1,7.5,16.6,16.6,16.6Z" class="g5"/>
<path d="M233.2,577.6v16.1c0,1.7,.8,13.5,14.7,17c14,-3.5,14.8,-15.3,14.8,-17V577.6Z" class="g3"/>
<path d="M233.2,577.6v16.1c0,1.7,.8,13.5,14.7,17c14,-3.5,14.8,-15.3,14.8,-17V577.6H233.2Z" class="g4"/>
<path d="M591.8,610.7c9.2,0,16.6,-7.4,16.6,-16.6c0,-9.1,-7.4,-16.5,-16.6,-16.5c-9.1,0,-16.6,7.4,-16.6,16.5c0,9.2,7.5,16.6,16.6,16.6Z" class="g3"/>
<path d="M591.8,610.7c9.2,0,16.6,-7.4,16.6,-16.6c0,-9.1,-7.4,-16.5,-16.6,-16.5c-9.1,0,-16.6,7.4,-16.6,16.5c0,9.2,7.5,16.6,16.6,16.6Z" class="g5"/>
<path d="M535.5,801.7h-4.1c-.1,0,-.2,-.1,-.2,-.2c-.1,-.1,-.1,-.2,-.1,-.4l3.2,-6.1h-2.6c-1.4,0,-2.5,1.1,-2.5,2.5v8.1c0,1.4,1.1,2.4,2.5,2.4h.5Z" class="g2"/>
<path d="M539.8,795.1h-1.1v.1l-2.7,3.9h3.9c0,0,.1,0,.1,0c.1,0,.2,.1,.3,.2c.1,.1,.1,.3,0,.4l-6.8,8.3h6.3c1.3,0,2.4,-1,2.4,-2.4v-8.1c0,-1.4,-1.1,-2.4,-2.4,-2.4Z" class="g2"/>
<path d="M561.4,795h-8.1c-1.3,0,-2.4,1.1,-2.4,2.5v8.1c0,1.4,1.1,2.4,2.4,2.4h8.1c1.4,0,2.5,-1,2.5,-2.4v-8.1c0,-1.4,-1.1,-2.5,-2.5,-2.5m.9,4.6l-5.7,5.7c-.2,.2,-.6,.2,-.8,0L552.5,802c-.3,-.3,-.3,-.6,0,-.9l.9,-.9c.2,-.2,.6,-.2,.8,0l2,1.9l4.3,-4.3c.2,-.2,.6,-.2,.8,0l1,1c.2,.2,.2,.6,0,.8Z" class="g2"/>
<path d="M65.4,826.1H191m8.7,0H400.2m8.6,0H520.6" class="g0"/>
<path d="M529.6,827.1h12.2V814.9H529.6v12.2Z" class="g3"/>
<path d="M529.6,827.1h12.2V814.9H529.6v12.2Z" class="g0"/>
<path d="M551.3,827.1h12.2V814.9H551.3v12.2Z" class="g3"/>
<path d="M551.3,827.1h12.2V814.9H551.3v12.2Zm21.2,-1h39M65.4,845.6H191m8.7,0H400.2m8.6,0H520.6" class="g0"/>
<path d="M529.6,846.6h12.2V834.4H529.6v12.2Z" class="g3"/>
<path d="M529.6,846.6h12.2V834.4H529.6v12.2Z" class="g0"/>
<path d="M551.3,846.6h12.2V834.4H551.3v12.2Z" class="g3"/>
<path d="M551.3,846.6h12.2V834.4H551.3v12.2Zm21.2,-1h39M65.4,865H191m8.7,0H400.2m8.6,0H520.6" class="g0"/>
<path d="M529.6,866.1h12.2V853.9H529.6v12.2Z" class="g3"/>
<path d="M529.6,866.1h12.2V853.9H529.6v12.2Z" class="g0"/>
<path d="M551.3,866.1h12.2V853.9H551.3v12.2Z" class="g3"/>
<path d="M551.3,866.1h12.2V853.9H551.3v12.2ZM572.5,865h39M65.4,884.5H191m8.7,0H400.2m8.6,0H520.6" class="g0"/>
<path d="M529.6,885.6h12.2V873.4H529.6v12.2Z" class="g3"/>
<path d="M529.6,885.6h12.2V873.4H529.6v12.2Z" class="g0"/>
<path d="M551.3,885.6h12.2V873.4H551.3v12.2Z" class="g3"/>
<path d="M551.3,885.6h12.2V873.4H551.3v12.2Zm21.2,-1.1h39" class="g0"/>
<g clip-path="url(#c0)">
<image preserveAspectRatio="none" x="248" y="46" width="180" height="29" xlink:href="img/1.png"/>
<image preserveAspectRatio="none" x="733" y="46" width="97" height="26" xlink:href="img/2.png"/>
<image preserveAspectRatio="none" x="277" y="260" width="122" height="26" xlink:href="img/3.png"/>
<image preserveAspectRatio="none" x="275" y="767" width="124" height="26" xlink:href="img/4.png"/>
<image preserveAspectRatio="none" x="405" y="903" width="160" height="26" xlink:href="img/5.png"/>
</g>
<path d="M240.8,665.3h-4.1c-.1,0,-.2,-.1,-.2,-.2c-.1,-.1,-.1,-.3,-.1,-.4l3.2,-6.1H237c-1.4,0,-2.5,1.1,-2.5,2.5v8.1c0,1.3,1.1,2.4,2.5,2.4h.5Z" class="g2"/>
<path d="M245.1,658.6H244q0,.1,0,.2l-2.7,3.9h3.9c0,0,.1,0,.1,0c.1,0,.2,.1,.3,.2c.1,.1,.1,.3,0,.4l-6.8,8.3h6.3c1.3,0,2.4,-1.1,2.4,-2.4v-8.1c0,-1.4,-1.1,-2.5,-2.4,-2.5Z" class="g2"/>
<path d="M266.7,658.6h-8.1c-1.3,0,-2.4,1.1,-2.4,2.5v8.1c0,1.3,1.1,2.4,2.4,2.4h8.1c1.4,0,2.5,-1.1,2.5,-2.4v-8.1c0,-1.4,-1.1,-2.5,-2.5,-2.5m.9,4.6l-5.7,5.7c-.2,.2,-.6,.2,-.8,0l-3.3,-3.4c-.3,-.2,-.3,-.6,0,-.8l.9,-.9c.2,-.3,.6,-.3,.8,0l2,1.9l4.3,-4.3c.2,-.2,.6,-.2,.8,0l1,.9c.2,.3,.2,.6,0,.9Z" class="g2"/>
<path d="M107.5,682.8h-1.6c.4,-.4,.6,-.9,.6,-1.5c0,-1.1,-1,-2.1,-2.1,-2.1c-1.2,0,-2.1,1,-2.1,2.1c0,.6,.2,1.1,.5,1.5h-1.6L99.7,690H109ZM104.4,680c.7,0,1.3,.6,1.3,1.3c0,.8,-.6,1.4,-1.3,1.4c-.8,0,-1.4,-.6,-1.4,-1.4c0,-.7,.6,-1.3,1.4,-1.3Z" class="g2"/>
<path d="M234.9,690.7h12.2V678.5H234.9v12.2Z" class="g3"/>
<path d="M234.9,690.7h12.2V678.5H234.9v12.2Z" class="g0"/>
<path d="M256.6,690.7h12.2V678.5H256.6v12.2Z" class="g3"/>
<path d="M256.6,690.7h12.2V678.5H256.6v12.2Zm21.2,-1.1h39" class="g0"/>
<path d="M234.9,710.2h12.2V698H234.9v12.2Z" class="g3"/>
<path d="M234.9,710.2h12.2V698H234.9v12.2Z" class="g0"/>
<path d="M256.6,710.2h12.2V698H256.6v12.2Z" class="g3"/>
<path d="M256.6,710.2h12.2V698H256.6v12.2Zm21.2,-1.1h39" class="g0"/>
<path d="M105.8,721.7h-1.7c.4,-.3,.6,-.8,.6,-1.4c0,-1.2,-1,-2.1,-2.1,-2.1c-1.2,0,-2.1,.9,-2.1,2.1c0,.6,.2,1.1,.5,1.4H99.4L97.9,729h9.3Zm-3.2,-2.8c.7,0,1.3,.7,1.3,1.4c0,.8,-.6,1.4,-1.3,1.4c-.8,0,-1.4,-.6,-1.4,-1.4c0,-.7,.6,-1.4,1.4,-1.4Z" class="g2"/>
<path d="M234.9,729.7h12.2V717.5H234.9v12.2Z" class="g3"/>
<path d="M234.9,729.7h12.2V717.5H234.9v12.2Z" class="g0"/>
<path d="M256.6,729.7h12.2V717.5H256.6v12.2Z" class="g3"/>
<path d="M256.6,729.7h12.2V717.5H256.6v12.2Zm21.2,-1.1h39" class="g0"/>
<path d="M234.9,749.2h12.2V737H234.9v12.2Z" class="g3"/>
<path d="M234.9,749.2h12.2V737H234.9v12.2Z" class="g0"/>
<path d="M256.6,749.2h12.2V737H256.6v12.2Z" class="g3"/>
<path d="M256.6,749.2h12.2V737H256.6v12.2Zm21.2,-1.1h39" class="g0"/>
<g clip-path="url(#c0)">
<image preserveAspectRatio="none" x="139" y="631" width="101" height="24" xlink:href="img/6.png"/>
<image preserveAspectRatio="none" x="451" y="631" width="70" height="24" xlink:href="img/7.png"/>
</g>
<path d="M380.3,655.4H404v77.9H380.3V655.4Zm47.3,0h23.7v77.9H427.6V655.4Zm47.4,0h23.6v77.9H475V655.4Zm47.3,0h23.6v77.9H522.3V655.4Zm47.3,0h23.7v77.9H569.6V655.4ZM380.3,733.3H404v19.5H380.3V733.3Zm47.3,0h23.7v19.5H427.6V733.3Zm47.4,0h23.6v19.5H475V733.3Zm47.3,0h23.6v19.5H522.3V733.3Zm47.3,0h23.7v19.5H569.6V733.3Z" class="g1"/>
<path d="M386,749.2h12.2V737H386v12.2Z" class="g3"/>
<path d="M386,749.2h12.2V737H386v12.2Z" class="g0"/>
<path d="M409.7,749.2h12.2V737H409.7v12.2Z" class="g3"/>
<path d="M409.7,749.2h12.2V737H409.7v12.2Z" class="g0"/>
<path d="M433.3,749.2h12.3V737H433.3v12.2Z" class="g3"/>
<path d="M433.3,749.2h12.3V737H433.3v12.2Z" class="g0"/>
<path d="M457,749.2h12.2V737H457v12.2Z" class="g3"/>
<path d="M457,749.2h12.2V737H457v12.2Z" class="g0"/>
<path d="M480.7,749.2h12.2V737H480.7v12.2Z" class="g3"/>
<path d="M480.7,749.2h12.2V737H480.7v12.2Z" class="g0"/>
<path d="M504.3,749.2h12.3V737H504.3v12.2Z" class="g3"/>
<path d="M504.3,749.2h12.3V737H504.3v12.2Z" class="g0"/>
<path d="M528,749.2h12.2V737H528v12.2Z" class="g3"/>
<path d="M528,749.2h12.2V737H528v12.2Z" class="g0"/>
<path d="M551.7,749.2h12.2V737H551.7v12.2Z" class="g3"/>
<path d="M551.7,749.2h12.2V737H551.7v12.2Z" class="g0"/>
<path d="M575.3,749.2h12.3V737H575.3v12.2Z" class="g3"/>
<path d="M575.3,749.2h12.3V737H575.3v12.2Z" class="g0"/>
<path d="M599,749.2h12.2V737H599v12.2Z" class="g3"/>
<path d="M599,749.2h12.2V737H599v12.2Zm56.9,-168H813.1" class="g0"/>
<path d="M841.3,594c9.1,0,16.5,-7.4,16.5,-16.6c0,-9.1,-7.4,-16.5,-16.5,-16.5c-9.2,0,-16.6,7.4,-16.6,16.5c0,9.2,7.4,16.6,16.6,16.6Z" class="g3"/>
<path d="M841.3,594c9.1,0,16.5,-7.4,16.5,-16.6c0,-9.1,-7.4,-16.5,-16.5,-16.5c-9.2,0,-16.6,7.4,-16.6,16.5c0,9.2,7.4,16.6,16.6,16.6Z" class="g5"/>
<path d="M888.9,594c9.1,0,16.6,-7.4,16.6,-16.6c0,-9.1,-7.5,-16.5,-16.6,-16.5c-9.2,0,-16.6,7.4,-16.6,16.5c0,9.2,7.4,16.6,16.6,16.6Z" class="g3"/>
<path d="M888.9,594c9.1,0,16.6,-7.4,16.6,-16.6c0,-9.1,-7.5,-16.5,-16.6,-16.5c-9.2,0,-16.6,7.4,-16.6,16.5c0,9.2,7.4,16.6,16.6,16.6Z" class="g5"/>
<g clip-path="url(#c0)">
<image preserveAspectRatio="none" x="678" y="377" width="207" height="40" xlink:href="img/8.png"/>
<image preserveAspectRatio="none" x="700" y="611" width="163" height="43" xlink:href="img/9.png"/>
</g>
<path d="M64.2,1186.8H61.5c-.1,-.1,-.2,-.1,-.2,-.2c-.1,0,-.1,-.1,0,-.2l2.1,-4.1H61.6c-.9,0,-1.6,.8,-1.6,1.7v5.4c0,.9,.7,1.6,1.6,1.6H62Z" class="g2"/>
<path d="M67,1182.3h-.7q0,.1,0,.1l-1.8,2.6h2.6c0,0,.1,0,.1,0c.1,0,.1,.1,.2,.2c0,.1,0,.2,0,.2l-4.6,5.6H67c.9,0,1.7,-.7,1.7,-1.6V1184c0,-.9,-.8,-1.7,-1.7,-1.7Z" class="g2"/>
<path d="M147.7,1182.3h-5.4c-.9,0,-1.6,.8,-1.6,1.7v5.4c0,.9,.7,1.6,1.6,1.6h5.4c.9,0,1.6,-.7,1.6,-1.6V1184c0,-.9,-.7,-1.7,-1.6,-1.7m.6,3.1l-3.8,3.7c-.2,.2,-.4,.2,-.6,0l-2.2,-2.2c-.1,-.1,-.1,-.4,0,-.5l.7,-.6c.1,-.2,.4,-.2,.5,0l1.3,1.3l2.9,-2.9c.1,-.2,.4,-.2,.5,0l.7,.6c.1,.2,.1,.4,0,.6Z" class="g2"/>
<path d="M222.7,1185.2h-1.3c.3,-.3,.4,-.7,.4,-1.2c0,-.9,-.7,-1.7,-1.6,-1.7c-.9,0,-1.7,.8,-1.7,1.7c0,.5,.2,.9,.4,1.2h-1.3l-1.1,5.8h7.4Zm-2.5,-2.3c.6,0,1,.5,1,1.1c0,.7,-.4,1.1,-1,1.1c-.6,0,-1.1,-.4,-1.1,-1.1c0,-.6,.5,-1.1,1.1,-1.1Z" class="g2"/>
<path d="M379.6,1182.3v4.3c0,.4,.2,3.5,3.5,4.4c3.3,-.9,3.5,-4,3.5,-4.4v-4.3Zm6.4,4.3c0,.1,0,2.9,-2.9,3.8v-7.5H386Z" class="g2"/>
<path d="M651.6,109.7H821.8v19.5H651.6V109.7Zm170.2,0h47.6v19.5H821.8V109.7Zm47.6,0h43.3v19.5H869.4V109.7Zm-217.8,39h19.5v39H651.6v-39Zm19.5,0H821.8v19.5H671.1V148.7Zm150.7,0h47.6v19.5H821.8V148.7Zm47.6,0h43.3v19.5H869.4V148.7ZM671.1,168.2H821.8v19.5H671.1V168.2Zm150.7,0h47.6v19.5H821.8V168.2Zm47.6,0h43.3v19.5H869.4V168.2ZM651.6,246.1H821.8v19.5H651.6V246.1Zm170.2,0h47.6v19.5H821.8V246.1Zm47.6,0h43.3v19.5H869.4V246.1Z" class="g1"/>
<path d="M884.9,72.9v7.4c0,.7,.4,6.1,6.2,7.8c5.8,-1.7,6.1,-7.1,6.1,-7.8V72.9Zm11.3,7.4c0,.2,-.1,5.1,-5.1,6.7V73.9h5.1Z" class="g2"/>
<path d="M826.1,105h39m-39,19.5h39" class="g0"/>
<path d="M879,115.6v5.3c0,.5,.2,4.3,4.4,5.5c4.1,-1.2,4.3,-5,4.3,-5.5v-5.3Zm8,5.3c0,.1,0,3.6,-3.6,4.8v-9.4H887Z" class="g2"/>
<path d="M826.1,144h39" class="g0"/>
<path d="M879,135.1v5.2c0,.6,.2,4.4,4.4,5.6c4.1,-1.2,4.3,-5,4.3,-5.6v-5.2Zm8,5.2c0,.2,0,3.7,-3.6,4.8v-9.3H887Z" class="g2"/>
<path d="M826.1,163.5h39" class="g0"/>
<path d="M879,154.5v5.3c0,.6,.2,4.4,4.4,5.6c4.1,-1.2,4.3,-5,4.3,-5.6v-5.3Zm8,5.3c0,.2,0,3.7,-3.6,4.8v-9.3H887Z" class="g2"/>
<path d="M826.1,183h39" class="g0"/>
<path d="M879,174v5.3c0,.6,.2,4.4,4.4,5.6c4.1,-1.2,4.3,-5,4.3,-5.6V174Zm8,5.3c0,.2,0,3.7,-3.6,4.8v-9.3H887Z" class="g2"/>
<path d="M826.1,202.4h39" class="g0"/>
<path d="M879,193.5v5.3c0,.5,.2,4.4,4.4,5.6c4.1,-1.2,4.3,-5.1,4.3,-5.6v-5.3Zm8,5.3c0,.2,0,3.7,-3.6,4.8v-9.4H887Z" class="g2"/>
<path d="M826.1,221.9h39" class="g0"/>
<path d="M879,213v5.3c0,.5,.2,4.4,4.4,5.5c4.1,-1.1,4.3,-5,4.3,-5.5V213Zm8,5.3c0,.2,0,3.7,-3.6,4.8v-9.4H887Z" class="g2"/>
<path d="M826.1,241.4h39" class="g0"/>
<path d="M879,232.5v5.3c0,.5,.2,4.4,4.4,5.5c4.1,-1.1,4.3,-5,4.3,-5.5v-5.3Zm8,5.3c0,.1,0,3.7,-3.6,4.8v-9.4H887Z" class="g2"/>
<path d="M826.1,260.9h39" class="g0"/>
<path d="M837,294v5.3c0,.5,.2,4.4,4.3,5.5c4.2,-1.1,4.4,-5,4.4,-5.5V294Zm8,5.3c0,.1,0,3.6,-3.7,4.8v-9.4H845Z" class="g2"/>
<path d="M753.4,333.2v5.3c0,.5,.2,4.4,4.3,5.5c4.2,-1.1,4.4,-5,4.4,-5.5v-5.3Zm8,5.3c0,.1,0,3.6,-3.7,4.8v-9.4h3.7Z" class="g2"/>
</svg>